<?xml version="1.0" encoding="UTF-8" standalone="no"?>
<svg
   viewBox="0 0 26 26"
   version="1.1"
   xmlns="http://www.w3.org/2000/svg">

  <path
     style="fill:#000000"
     transform="translate(6.7, 5.2) scale(0.6)"
     d="M 8.82735,25.33473 C 7.97945,25.1215 7.63295,24.68088 6.87885,22.85697 6.52311,21.99654 6.17208,21.28919 5.94577,20.97678 l -0.14926,-0.20604 -0.2982,0.11025 -0.2982,0.11024 -0.64533,0.004 -0.64532,0.004 -0.27264,-0.095 C 2.84011,20.62654 2.662,19.83604 3.14849,18.73697 L 3.2815,18.43648 3.2333,18.29815 3.1851,18.15982 2.46315,17.62221 C 0.88753,16.44891 0.33307,15.57934 0.0859,13.89392 L 0,13.30815 0.0292,12.32667 C 0.1054,9.7637 0.24105,9.1442 1.10197,7.42597 2.02707,5.57967 3.04818,4.48693 4.33817,3.96276 4.69294,3.8186 5.30877,3.67412 5.40729,3.71192 L 5.46959,3.73582 5.44589,2.7651 5.42219,1.79437 5.50439,1.40873 C 5.90779,-0.48373 7.94177,0.37362 9.4595,3.07586 l 0.16883,0.3006 0.36725,-0.0284 c 0.20198,-0.0156 0.79703,-0.0409 1.32233,-0.0562 0.52529,-0.0153 1.19264,-0.0418 1.48299,-0.0589 l 0.52792,-0.0311 0.28819,-0.54451 C 14.02351,1.8893 14.4801,1.23883 14.93246,0.78332 L 15.32121,0.39186 15.71764,0.19593 16.11407,0 l 0.2783,0.0231 0.27829,0.0231 0.16959,0.12076 c 0.22382,0.15937 0.45236,0.65489 0.55308,1.19915 l 0.0792,0.42823 -0.0158,1.03252 c -0.0375,2.44575 -0.0162,2.66709 0.36463,3.79452 0.68532,2.02883 0.60748,2.88508 -0.35748,3.93231 l -0.34921,0.37899 -0.0891,0.30949 c -0.23205,0.80647 -0.95814,2.59088 -1.77963,4.37352 -0.57399,1.24559 -0.49326,1.42262 0.84286,1.84803 l 0.20206,0.0643 0.39164,-0.029 c 1.19631,-0.0884 2.32444,-0.82725 3.14993,-2.06285 0.47456,-0.71033 0.81941,-0.96222 1.37881,-1.00712 l 0.31982,-0.0257 0.23808,0.11525 c 0.13095,0.0634 0.30134,0.19819 0.37866,0.29955 l 0.14056,0.18429 0.0183,0.40172 0.0183,0.40172 -0.1391,0.43687 c -0.69435,2.18059 -2.25737,3.78636 -4.18607,4.30058 l -0.51257,0.13666 -0.87765,0.004 -0.87764,0.004 -0.56296,-0.14592 c -0.30963,-0.0803 -0.74656,-0.21602 -0.97095,-0.30171 -0.48551,-0.1854 -0.45063,-0.20897 -0.52538,0.3551 l -0.0601,0.45359 0.16828,0.25006 c 0.63817,0.94833 0.47209,1.98209 -0.35805,2.22861 l -0.26506,0.0787 h -0.65633 -0.65633 l -0.3281,-0.1032 c -0.18045,-0.0568 -0.44633,-0.16885 -0.59084,-0.24909 l -0.26274,-0.14588 0.15347,0.60362 0.15347,0.60362 -0.0353,0.23538 c -0.0466,0.31092 -0.21445,0.54963 -0.49673,0.70653 l -0.23032,0.12802 -0.54208,0.0123 -0.54207,0.0123 z m 1.17826,-0.445 c 0.48273,-0.12155 0.51834,-0.31854 0.25263,-1.39742 -0.4768,-1.93597 -0.72916,-3.78585 -0.58656,-4.29952 l 0.057,-0.20524 0.32168,-0.31541 0.32167,-0.3154 0.5396,-0.26816 c 0.29678,-0.14749 0.621,-0.28137 0.7205,-0.29751 l 0.18091,-0.0294 0.0661,0.0796 c 0.0364,0.0438 0.0585,0.1332 0.0492,0.19865 l -0.0169,0.119 -0.61155,0.30058 -0.61155,0.30057 -0.279,0.27024 -0.279,0.27023 9.4e-4,0.41008 c 10e-4,0.4493 0.0878,1.12731 0.26374,2.062 l 0.11404,0.60574 0.21074,0.15377 c 0.31629,0.23079 0.76836,0.44672 1.12838,0.53895 l 0.32132,0.0823 0.49048,-0.0254 c 0.55333,-0.0286 0.88129,-0.13661 0.98111,-0.32313 l 0.0664,-0.12403 -0.0313,-0.26446 C 13.64109,22.12 13.44674,21.65973 13.24505,21.3953 l -0.13365,-0.17523 0.0357,-0.39388 c 0.14492,-1.59918 0.55299,-3.07581 1.2762,-4.61798 0.82746,-1.76446 1.46448,-3.24637 1.85054,-4.30491 l 0.19149,-0.52506 -0.19168,0.12101 c -0.80934,0.51091 -2.51101,1.24442 -3.32598,1.43367 l -0.4683,0.10875 -0.85183,-9.5e-4 -0.85183,-9.5e-4 -0.40424,-0.11105 C 10.14914,12.86762 9.77743,12.73817 9.54546,12.641 9.31348,12.5438 8.76359,12.31442 8.32348,12.13117 6.19197,11.24369 5.47883,10.65586 5.19138,9.54942 L 5.10778,9.22755 5.1079,8.55641 5.10802,7.88527 5.19022,7.54452 C 5.23542,7.35711 5.34841,7.02025 5.44124,6.79594 L 5.61001,6.38812 5.61201,5.31949 C 5.61295,4.66914 5.59321,4.23051 5.56161,4.19887 l -0.052,-0.052 -0.36104,0.0804 c -2.13517,0.4752 -4.41197,3.7209 -4.5403,6.47244 -0.0139,0.29771 -0.049,0.73876 -0.078,0.98012 -0.14999,1.24789 0.0265,2.68808 0.43483,3.54898 0.4201,0.88561 0.72882,1.20403 2.26143,2.33247 0.13526,0.0996 0.30637,0.2683 0.38025,0.3749 l 0.13432,0.19383 -4.1e-4,0.24676 c -2.5e-4,0.15142 -0.051,0.3607 -0.13134,0.54169 -0.072,0.16221 -0.16066,0.47195 -0.19702,0.6883 l -0.0661,0.39338 0.0758,0.13512 c 0.2164,0.38554 1.04152,0.51638 1.84035,0.29183 0.3756,-0.10558 0.38064,-0.0602 -0.14156,-1.27385 C 4.02905,16.61589 3.82882,16.28049 2.8043,15.27282 2.21482,14.69304 2.16125,14.59927 2.33153,14.44517 l 0.0995,-0.0901 0.11041,0.035 c 0.1546,0.0491 1.08096,0.949 1.45863,1.41702 l 0.31469,0.38997 0.34977,0.72277 c 0.19238,0.39752 0.62499,1.36163 0.96137,2.14248 0.33638,0.78084 0.74351,1.64041 0.90473,1.91016 0.16123,0.26974 0.51591,1.01247 0.78819,1.6505 0.77967,1.82696 0.97627,2.08016 1.74495,2.24728 0.40288,0.0876 0.65088,0.0927 0.94216,0.0193 z m 7.89449,-4.84337 c 1.79568,-0.48844 3.38962,-2.21763 3.88149,-4.21083 l 0.0844,-0.34214 -0.047,-0.18521 c -0.0258,-0.10187 -0.10851,-0.23087 -0.1837,-0.28667 l -0.13672,-0.10145 -0.2187,0.003 -0.21869,0.003 -0.2363,0.14609 -0.23629,0.14609 -0.26707,0.40176 c -1.54114,2.3183 -3.84125,3.03036 -5.55736,1.72042 l -0.23727,-0.18111 -0.0355,0.0868 c -0.20095,0.49146 -0.64398,2.04693 -0.64398,2.26099 0,0.0913 1.1128,0.48468 1.73724,0.61411 l 0.35362,0.0733 0.77439,-0.0179 0.77439,-0.0179 z m -5.2544,-7.56657 c 0.80271,-0.15227 2.04393,-0.66606 3.21255,-1.3298 0.82271,-0.46728 1.42474,-1.03017 1.71591,-1.60433 L 17.7354,9.2277 17.7604,8.84732 C 17.7943,8.33195 17.7086,7.89749 17.35689,6.80128 L 17.05876,5.87201 17.00196,5.40738 c -0.0766,-0.62646 -0.085,-1.17119 -0.0346,-2.24574 l 0.0424,-0.90345 -0.058,-0.46769 C 16.87326,1.15721 16.75946,0.79978 16.57908,0.6194 L 16.42862,0.46893 16.26094,0.50433 C 15.56775,0.65079 14.73477,1.57722 13.99708,3.02217 L 13.6861,3.6313 13.57322,3.6723 c -0.098,0.0356 -3.26058,0.16341 -3.98954,0.16124 L 9.32084,3.83276 9.00934,3.30359 C 8.2476,2.00957 7.41921,1.14709 6.7127,0.91242 L 6.45451,0.82672 6.3328,0.88222 C 6.14839,0.96622 6.01045,1.29329 5.94173,1.80946 l -0.0619,0.4652 0.0592,0.7662 c 0.0326,0.4214 0.0968,0.97527 0.14281,1.23082 L 6.16544,4.73632 6.13574,5.55318 6.10604,6.37004 5.94653,6.81802 C 5.85883,7.0644 5.7485,7.39377 5.70141,7.54993 l -0.0856,0.28395 -10e-4,0.72276 -0.001,0.72277 0.095,0.28924 c 0.25385,0.77272 1.04401,1.37757 2.65207,2.03011 0.30634,0.12431 0.80635,0.33414 1.11115,0.4663 0.30479,0.13216 0.76943,0.29591 1.03252,0.3639 l 0.47835,0.12362 0.62671,0.003 c 0.35388,10e-4 0.80523,-0.0313 1.03677,-0.0753 z M 11.79828,9.87858 C 11.53266,9.68617 11.38376,9.49442 11.31964,9.26219 l -0.0513,-0.18588 0.0893,-0.18243 0.0893,-0.18244 0.23035,-0.11616 C 12.0809,8.39176 12.6326,8.46595 12.95141,8.76662 l 0.17338,0.16352 v 0.16425 c 0,0.40757 -0.53182,0.93351 -0.94394,0.93351 h -0.17634 z m 0.71199,-0.58059 0.11553,-0.16223 -0.096,-0.0702 c -0.1589,-0.11619 -0.56963,-0.11143 -0.69142,0.008 l -0.0731,0.0717 0.2123,0.2123 0.2123,0.2123 0.10244,-0.0548 C 12.34862,9.48496 12.44674,9.38723 12.51027,9.298 Z M 9.45892,8.22767 C 8.94384,8.05791 8.58837,7.64969 8.39665,7.00778 8.29114,6.65452 8.16724,6.48952 7.9704,6.44011 7.45373,6.31044 7.6463,5.95438 8.29356,5.8426 c 1.35941,-0.23475 2.56002,0.47452 2.5594,1.512 l -1.9e-4,0.32432 -0.0977,0.16029 c -0.0538,0.0882 -0.18043,0.21139 -0.28149,0.27385 l -0.18376,0.11356 -0.35073,0.0219 c -0.1929,0.012 -0.40896,0.003 -0.48013,-0.0208 z m 0.79934,-0.58285 0.1418,-0.11154 -0.0234,-0.24325 C 10.35426,7.05652 10.1771,6.72384 10.07522,6.72384 c -0.0265,0 -0.0481,0.14636 -0.0481,0.32524 0,0.36 -0.0527,0.44915 -0.26541,0.44915 -0.19654,0 -0.22146,0.0613 -0.25085,-0.6174 L 9.48506,6.3925 9.27856,6.3496 C 9.16498,6.326 8.98818,6.3134 8.88567,6.3217 l -0.18638,0.015 0.14202,0.42655 c 0.15535,0.46658 0.33552,0.74187 0.5852,0.89412 l 0.16181,0.0987 0.26407,2e-4 0.26407,1.9e-4 z m 3.33872,0.37414 C 13.258,7.9019 13.07771,7.77175 12.94826,7.55068 l -0.099,-0.16907 0.006,-0.25903 0.006,-0.25904 0.14473,-0.28926 0.14472,-0.28926 0.24898,-0.1664 C 13.95997,5.74418 14.97641,5.6908 15.87424,5.98868 l 0.27078,0.0898 0.0166,0.1451 c 0.0205,0.17901 -0.0682,0.29372 -0.22704,0.29372 -0.0662,0 -0.1776,0.0261 -0.24762,0.058 l -0.1273,0.058 -0.16777,0.3848 C 15.16243,7.54437 14.9396,7.82071 14.61375,7.98308 L 14.34361,8.1177 14.10852,8.1157 C 13.97922,8.11477 13.7491,8.0711 13.59714,8.0186 Z m 0.92331,-0.56592 c 0.17099,-0.14095 0.2332,-0.24358 0.52438,-0.86503 l 0.12412,-0.2649 -0.28152,-0.0291 c -0.15483,-0.016 -0.34423,-0.0165 -0.42089,-0.001 l -0.13938,0.0279 0.0251,0.48005 0.0251,0.48006 -0.11346,0.0607 -0.11347,0.0607 -0.11926,-0.0781 -0.11926,-0.0781 -0.0366,-0.39016 c -0.0201,-0.21459 -0.0596,-0.39016 -0.0877,-0.39016 -0.10439,0 -0.34573,0.29929 -0.40745,0.50529 l -0.0637,0.21279 0.0864,0.13187 c 0.1143,0.17445 0.35995,0.27644 0.67826,0.28161 l 0.25928,0.004 z" />
</svg>